# Blender 4.5.3 LTS
# www.blender.org
mtllib Air_Wing.mtl
o Cone.001
v 0.129860 -0.024542 0.123356
v -0.049150 0.030370 0.121573
v -0.128626 -0.024502 0.121658
v -0.000001 -0.047164 -0.275890
v 0.000011 -0.060262 -0.104843
v -0.030646 0.081607 0.282603
v -0.029553 -0.006124 0.251378
v -0.048360 0.098862 0.239662
v 0.037011 0.082222 0.282593
v 0.035656 -0.006214 0.251378
v 0.060994 0.030368 0.121729
v 0.055232 0.098862 0.239227
v 0.003441 0.033699 0.328760
v 0.002977 0.098862 0.239444
v 0.033601 0.098862 0.239444
v -0.027647 0.098862 0.239444
v 0.189460 0.027638 0.202136
v 0.190152 0.013269 0.209136
v 0.190857 0.035269 0.215241
v 0.191608 0.019970 0.223488
v 0.055784 0.028404 0.201842
v 0.054817 0.014480 0.208572
v 0.054680 0.035074 0.215683
v 0.054046 0.021181 0.222412
v 0.054941 -0.012389 0.239444
v -0.048994 -0.012245 0.239445
v 0.003594 0.051227 0.362781
v -0.210640 0.021199 0.227333
v -0.209552 0.035093 0.220603
v -0.209869 0.014499 0.213492
v -0.208781 0.028393 0.206763
v -0.041346 0.019988 0.222764
v -0.042097 0.035288 0.214516
v -0.042802 0.013288 0.208411
v -0.043494 0.027657 0.201412
v -0.234246 0.082028 0.255123
v -0.330374 0.189391 0.516580
v -0.178931 0.023921 0.197695
v -0.269133 -0.031333 0.282671
v -0.246819 -0.173307 0.022408
v -0.179850 -0.034505 0.282067
v -0.244496 -0.171456 0.023735
v -0.328902 0.187562 0.515224
v 0.177714 0.024837 0.195224
v 0.284042 -0.173339 0.018476
v 0.242003 0.083516 0.262630
v 0.206089 -0.033067 0.285773
v 0.325328 0.189311 0.511238
v 0.278698 -0.029718 0.281803
v 0.281677 -0.173041 0.020689
v 0.323986 0.188214 0.509154
v -0.249430 -0.039927 0.293270
v -0.183607 -0.040033 0.294840
v -0.308648 -0.067440 0.382915
v -0.269958 -0.039576 0.295012
v -0.308589 -0.067407 0.382732
v -0.554894 -0.098065 0.879315
v -0.554894 -0.098059 0.879315
v -0.554894 -0.098038 0.879315
v -0.249430 -0.054567 0.237845
v -0.180100 -0.054673 0.238518
v -0.265232 -0.054216 0.234055
v 0.241873 -0.040322 0.294722
v 0.287435 -0.039545 0.295094
v 0.309735 -0.062719 0.376773
v 0.187900 -0.036667 0.294306
v 0.309706 -0.062688 0.376583
v 0.548349 -0.099087 0.892751
v 0.548349 -0.099081 0.892751
v 0.546820 -0.096986 0.889346
v 0.207108 -0.054211 0.231866
v 0.283876 -0.053988 0.234306
v 0.417892 -0.069316 0.593923
v 0.547239 -0.096238 0.891284
v 0.449420 -0.069316 0.573354
v -0.412426 -0.068807 0.587163
v -0.555700 -0.098038 0.878509
v -0.447978 -0.068807 0.575186
v -0.257449 -0.049202 0.387798
v -0.261569 -0.046351 0.380636
v -0.253196 -0.051608 0.391332
v -0.259983 -0.053984 0.376684
v -0.249906 -0.046039 0.384717
v -0.254026 -0.043187 0.377555
v -0.248426 -0.050788 0.385386
v -0.252439 -0.050821 0.373604
v -0.184278 -0.022240 0.345768
v -0.180158 -0.025091 0.352930
v -0.181745 -0.017458 0.356881
v -0.185865 -0.014607 0.349719
v -0.030915 0.042066 0.283135
v -0.026795 0.039215 0.290298
v -0.028382 0.046848 0.294249
v -0.032502 0.049699 0.287087
v 0.273807 -0.041451 0.398859
v 0.276921 -0.043827 0.391045
v 0.271688 -0.037994 0.403323
v 0.282968 -0.037536 0.391542
v 0.252620 -0.033844 0.394974
v 0.256465 -0.034594 0.387160
v 0.253203 -0.029888 0.398007
v 0.259097 -0.026274 0.387656
v 0.192276 -0.003036 0.352549
v 0.188431 -0.002286 0.360363
v 0.185799 -0.010607 0.359867
v 0.189643 -0.011356 0.352053
v 0.041926 0.049250 0.273558
v 0.038082 0.050000 0.281372
v 0.035449 0.041680 0.280876
v 0.039294 0.040930 0.273062
v 0.287722 -0.051104 0.416383
v 0.289840 -0.054560 0.411919
v 0.292954 -0.056936 0.404105
v 0.299002 -0.050645 0.404602
v 0.308279 -0.056854 0.429823
v 0.312024 -0.059247 0.425747
v 0.316217 -0.060589 0.418196
v 0.318256 -0.052098 0.417819
v 0.293047 -0.055565 0.419010
v 0.296791 -0.057958 0.414934
v 0.300985 -0.059299 0.407383
v 0.303024 -0.050808 0.407007
vn 0.4661 0.8684 -0.1693
vn 0.8781 0.3782 -0.2932
vn -0.0041 -0.0734 -0.9973
vn -0.9629 -0.2038 -0.1770
vn -0.3000 0.9286 -0.2182
vn 0.9531 -0.2389 -0.1860
vn -0.0013 -0.9994 -0.0357
vn 0.8169 -0.5020 0.2841
vn 0.9227 -0.0010 0.3856
vn 0.9231 -0.0004 0.3845
vn -0.0010 -0.9946 0.1038
vn -0.0008 -0.9946 0.1041
vn -0.9237 0.0041 0.3832
vn -0.9235 0.0040 0.3836
vn -0.9197 -0.0007 0.3925
vn 0.9948 -0.0036 -0.1014
vn 0.9948 -0.0038 -0.1014
vn 0.9947 -0.0064 -0.1023
vn -0.9979 0.0151 -0.0629
vn -0.0012 -0.8890 0.4580
vn -0.9963 0.0414 -0.0755
vn 0.9950 -0.0015 -0.0999
vn 0.9948 -0.0062 -0.1013
vn 0.9949 -0.0010 -0.1004
vn 0.0274 0.4340 0.9005
vn 0.3710 -0.8015 0.4690
vn 0.6384 0.7184 -0.2762
vn 0.3243 -0.8277 0.4580
vn -0.0433 -0.9466 -0.3194
vn -0.8745 -0.1914 -0.4456
vn -0.1069 -0.9269 0.3598
vn -0.4221 0.0706 -0.9038
vn 0.8985 0.0043 0.4390
vn 0.8966 -0.0004 0.4428
vn -0.0644 -0.9749 -0.2130
vn -0.8989 0.1049 0.4255
vn 0.0300 0.9647 -0.2618
vn 0.8833 -0.1012 -0.4578
vn 0.0459 0.9965 0.0703
vn 0.6968 -0.6170 -0.3657
vn 0.0289 -0.9959 -0.0857
vn -0.6840 -0.6004 0.4143
vn -0.4714 0.3262 -0.8194
vn 0.2880 0.2208 0.9318
vn -0.1816 0.8733 0.4521
vn -0.1815 0.8733 0.4521
vn 0.3075 -0.9460 -0.1022
vn 0.8630 0.3619 -0.3524
vn 0.8630 0.3619 -0.3525
vn 0.1815 -0.8733 -0.4521
vn 0.4714 -0.3262 0.8194
vn -0.5331 -0.4638 0.7076
vn -0.2514 -0.9502 -0.1842
vn 0.0402 -0.7001 -0.7129
vn 0.0602 0.8219 0.5665
vn 0.3012 0.9519 0.0568
vn -0.3012 -0.9519 -0.0568
vn -0.4398 0.0858 0.8940
vn 0.4164 -0.3335 -0.8458
vn 0.4415 -0.3595 -0.8221
vn -0.7093 -0.6790 0.1892
vn 0.3721 0.8427 0.3891
vn -0.6267 -0.7792 -0.0128
vn -0.5607 0.1706 0.8102
vn -0.4743 -0.7907 0.3872
vn -0.1193 0.9530 0.2785
vn -0.2324 -0.9716 0.0435
vn 0.7541 0.0670 0.6533
vn 0.2786 0.9178 -0.2830
vn 0.1178 -0.9528 -0.2796
vn 0.1488 0.9845 -0.0923
vn -0.0000 1.0000 0.0001
vn -0.0084 0.9339 0.3575
vn 0.6551 0.7543 0.0431
vn -0.9238 0.0045 0.3829
vn -0.9955 0.0249 -0.0914
vn 0.0314 0.4755 0.8792
vn -0.7935 -0.6071 -0.0424
vn 0.5376 0.5526 -0.6368
vn 0.0054 -0.9569 -0.2904
vn -0.8990 -0.0032 -0.4378
vn -0.8991 -0.0032 -0.4378
vn -0.8748 -0.1903 -0.4456
vn 0.2601 -0.9631 0.0696
vn -0.6475 -0.6852 -0.3336
vn -0.6478 -0.6848 -0.3337
vn -0.8960 0.0201 -0.4436
vn -0.0039 -0.9679 0.2513
vn -0.0047 -0.9724 0.2332
vn 0.0055 0.9947 0.1022
vn 0.5148 -0.7226 -0.4613
vn 0.5153 -0.7225 -0.4609
vn 0.5159 -0.7223 -0.4605
vn 0.8972 -0.0094 0.4415
vn 0.0187 -0.9604 -0.2779
vn -0.2377 -0.9703 0.0450
vn -0.6958 -0.7181 -0.0139
vn -0.4672 -0.8842 -0.0040
vn -0.4671 -0.8842 -0.0042
vn -0.4671 -0.8842 -0.0041
vn -0.9069 0.0223 0.4208
vn 0.0045 0.9728 -0.2314
vn 0.0281 0.9958 0.0869
vn 0.0460 0.9963 0.0732
vn 0.9170 0.0216 -0.3982
vn -0.9106 -0.1581 0.3818
vn 0.0670 -0.9955 -0.0670
vn -0.8630 -0.3619 0.3524
vn 0.2473 0.9131 0.3242
vn 0.5014 -0.3133 0.8065
vn -0.4094 0.9034 0.1273
vn -0.4097 0.9033 0.1269
vn -0.4097 0.9034 0.1269
vn -0.4068 0.9133 -0.0210
vn -0.4067 0.9133 -0.0212
vn -0.4065 0.9134 -0.0205
vn 0.5669 0.4191 -0.7092
vn 0.5669 0.4191 -0.7093
vn 0.5662 0.4190 -0.7098
vn 0.3779 -0.9255 -0.0249
vn 0.1816 -0.8733 -0.4521
vn 0.1220 -0.9918 -0.0388
vn -0.4619 -0.7939 0.3955
vn -0.4692 0.0961 0.8778
vn -0.3357 -0.5414 0.7708
vn -0.3428 -0.9389 0.0309
vn -0.4255 -0.8990 0.1038
vn 0.4398 -0.0858 -0.8940
vn 0.4465 0.8466 -0.2895
vn 0.1550 -0.0712 -0.9853
vn 0.3476 0.8631 0.3664
vn 0.4106 0.9110 -0.0386
vn 0.4163 -0.3335 -0.8458
vn 0.5492 -0.1682 -0.8186
vn -0.3355 -0.9139 0.2284
vn 0.1519 0.9713 0.1832
vn -0.2605 -0.9477 0.1844
vn 0.8458 -0.1809 0.5019
vn -0.0010 0.9317 0.3632
vn -0.0034 0.9906 -0.1368
vn -0.0026 0.9265 0.3762
vn 0.7102 0.7035 -0.0278
vn -0.9473 0.2400 -0.2121
vn 0.9693 -0.2070 -0.1328
vn -0.1182 0.6721 -0.7310
vn 0.9490 0.2845 -0.1359
vn 0.0709 -0.7287 0.6812
vn -0.5428 0.5303 -0.6513
vn 0.0274 -0.8919 0.4514
vn -0.8898 -0.4562 -0.0129
vn -0.8988 0.1794 -0.3999
vn -0.0281 -0.8803 0.4737
vn 0.9043 0.3464 0.2497
vn -0.0213 -0.7307 0.6823
vn -0.0560 0.6744 -0.7363
vn 0.8927 0.2230 -0.3916
vn 0.1174 0.6909 -0.7134
vn -0.5765 0.8033 -0.1494
vn 0.0666 -0.8744 0.4807
vn -0.9221 0.1222 0.3671
vn -0.0023 0.8670 -0.4983
vn 0.0054 0.8985 -0.4390
vn -0.0029 0.8643 -0.5030
vn -0.0002 -0.4353 -0.9003
vn -0.0005 -0.4377 -0.8991
vn -0.0001 -0.4351 -0.9004
vn -0.0307 -0.4355 -0.8997
vn -0.0308 -0.4371 -0.8989
vn -0.0305 -0.4338 -0.9005
vn 0.0058 -0.9021 0.4314
vn 0.0059 -0.9041 0.4273
vn 0.0067 -0.8999 0.4360
vn -0.0192 0.8649 -0.5016
vn 0.0019 0.4390 0.8985
vn -0.0024 0.4718 0.8817
vn 0.0023 0.4358 0.9000
vn -0.0310 -0.4389 -0.8980
vn 0.0049 -0.9063 0.4226
vn -0.0101 0.8998 -0.4362
vn -0.0112 -0.9053 0.4247
vn -0.0100 -0.9007 0.4344
vn -0.0099 -0.9002 0.4353
vn 0.0061 0.9010 -0.4337
vn -0.0005 -0.4379 -0.8990
vn -0.0027 0.4744 0.8803
vn -0.0113 -0.9056 0.4239
vn -0.9345 0.3343 0.1221
vn -0.8132 0.5469 0.1988
vn -0.5442 0.7887 0.2859
vn -0.0004 0.8644 -0.5028
vn -1.0000 0.0057 0.0034
vt 0.750000 0.010000
vt 0.419706 0.080294
vt 0.250000 0.250000
vt 0.580294 0.419706
vt 0.010000 0.250000
vt 0.000000 0.000000
vt 0.625000 0.750000
vt 0.750000 0.750000
vt 0.875000 0.750000
vt 0.375000 0.750000
vt 0.625000 0.500000
vt 0.625000 0.000000
vt 0.375000 0.250000
vt 0.375000 0.000000
vt 0.072565 0.072565
vt 0.543118 0.543118
vt 0.375000 0.500000
vt 0.625000 1.000000
vt 0.375000 1.000000
vt 0.125000 0.500000
vt 0.125000 0.750000
vt 0.875000 0.500000
vt 0.375000 0.625000
vt 0.312500 0.500000
vt 0.187500 0.375000
vt 0.625000 0.250000
vt 0.750000 0.500000
vt 0.812500 0.500000
s 1
usemtl Material.001
f 11/1/1 1/2/2 4/3/3
f 3/4/4 2/5/5 4/3/3
f 11/1/1 4/3/3 2/5/5
f 1/2/6 5/6/7 4/3/3
f 3/4/4 4/3/3 5/6/7
f 5/6/7 1/2/6 3/4/4
f 25/6/8 9/7/9 27/8/10
f 1/6/2 26/6/11 3/6/12
f 6/9/13 26/6/14 27/8/15
f 20/10/16 17/11/17 19/7/18
f 23/12/19 22/13/19 24/14/19
f 7/15/20 25/6/20 10/15/20
f 13/16/20 25/6/20 27/8/20
f 13/16/20 26/6/20 7/15/20
f 29/12/21 30/13/21 28/14/21
f 35/11/22 32/10/23 34/17/24
f 32/10/25 29/18/25 28/19/25
f 42/17/26 39/7/26 40/10/26
f 43/20/27 41/10/27 37/21/27
f 49/22/28 50/7/28 45/11/28
f 52/13/29 56/11/29 55/17/29
f 76/23/30 54/6/30 57/18/30
f 53/6/31 62/6/31 60/6/31
f 55/6/32 59/10/33 58/7/34
f 63/13/35 67/11/35 66/17/35
f 67/11/36 68/18/36 69/7/36
f 64/6/37 71/6/37 66/6/37
f 70/10/38 69/7/38 68/18/38
f 73/24/39 74/18/39 75/24/39
f 67/6/40 73/6/40 68/6/40
f 76/25/41 77/10/41 78/25/41
f 79/14/42 82/26/42 81/13/42
f 87/11/43 94/7/43 91/11/43
f 85/6/44 89/10/44 79/14/44
f 83/6/45 90/7/46 80/12/46
f 84/6/43 87/11/43 82/26/43
f 86/6/47 88/17/47 85/6/47
f 92/17/48 94/7/48 93/10/49
f 87/11/50 92/17/50 88/17/50
f 89/10/46 94/7/45 90/7/46
f 89/10/51 92/17/51 93/10/51
f 101/6/52 105/10/52 99/6/52
f 105/10/53 100/6/53 95/14/53
f 100/6/54 103/11/54 98/26/54
f 102/6/55 104/17/55 97/13/55
f 103/11/56 108/17/56 104/17/56
f 105/10/57 110/7/57 106/7/57
f 105/10/58 108/17/58 109/10/58
f 98/26/59 113/12/59 96/12/59
f 114/26/60 117/12/60 113/12/60
f 95/14/61 111/13/61 97/13/61
f 98/26/62 111/13/62 114/26/62
f 95/14/63 113/12/63 112/14/63
f 117/12/64 122/26/64 121/12/64
f 112/14/65 115/13/65 111/13/65
f 114/26/66 115/13/66 118/26/66
f 112/14/67 117/12/67 116/14/67
f 120/14/68 122/26/68 119/13/68
f 115/13/69 120/14/69 119/13/69
f 115/13/70 122/26/70 118/26/70
f 117/12/71 120/14/71 116/14/71
f 14/27/72 16/28/72 8/22/72
f 6/9/73 27/8/73 9/7/73
f 25/6/8 12/6/74 9/7/9
f 1/6/2 25/6/8 26/6/11
f 6/9/13 8/6/75 26/6/14
f 23/12/76 21/26/76 22/13/76
f 7/15/20 26/6/20 25/6/20
f 13/16/20 10/15/20 25/6/20
f 13/16/20 27/8/20 26/6/20
f 29/12/21 31/26/21 30/13/21
f 35/11/22 33/7/18 32/10/23
f 32/10/77 33/7/77 29/18/77
f 36/14/78 43/12/78 37/26/78
f 49/14/79 51/12/79 48/26/79
f 52/13/80 53/26/80 56/11/80
f 58/7/81 59/10/82 76/23/82
f 76/23/83 55/17/83 56/11/83
f 54/6/84 53/6/84 57/18/84
f 76/23/85 56/11/86 54/6/85
f 57/18/87 58/7/87 76/23/87
f 60/6/88 61/6/88 53/6/88
f 53/6/89 55/6/89 62/6/89
f 57/18/90 53/6/90 55/6/90
f 55/6/91 76/25/92 59/10/93
f 58/7/34 57/18/94 55/6/32
f 63/13/95 64/26/95 67/11/95
f 70/10/96 66/17/96 67/11/96
f 67/11/97 65/6/97 64/6/97
f 64/6/98 73/24/99 68/18/100
f 69/7/101 70/10/101 67/11/101
f 67/11/40 64/6/40 68/18/40
f 64/6/102 72/6/102 71/6/102
f 73/24/103 64/6/103 66/6/103
f 73/24/104 66/6/104 70/10/104
f 68/18/105 73/24/105 70/10/105
f 73/24/106 68/18/106 74/18/106
f 67/6/40 64/6/40 73/6/40
f 76/25/107 59/10/107 77/10/107
f 79/14/108 80/12/108 82/26/108
f 87/11/43 90/7/43 94/7/43
f 79/14/109 81/13/109 85/6/109
f 85/6/110 88/17/110 89/10/110
f 89/10/111 83/6/112 79/14/113
f 83/6/45 89/10/46 90/7/46
f 90/7/114 84/6/115 80/12/116
f 80/12/46 79/14/46 83/6/45
f 84/6/43 90/7/43 87/11/43
f 87/11/117 86/6/118 82/26/119
f 82/26/43 80/12/43 84/6/43
f 81/13/120 82/26/120 86/6/120
f 86/6/121 87/11/50 88/17/50
f 85/6/122 81/13/122 86/6/122
f 92/17/48 91/11/48 94/7/48
f 87/11/50 91/11/121 92/17/50
f 89/10/46 93/10/45 94/7/45
f 89/10/51 88/17/51 92/17/51
f 95/14/123 97/13/123 101/6/123
f 101/6/124 104/17/124 105/10/124
f 99/6/125 95/14/125 101/6/125
f 95/14/126 99/6/126 105/10/126
f 105/10/57 106/7/57 100/6/57
f 100/6/127 96/12/127 95/14/127
f 100/6/128 106/7/128 103/11/128
f 103/11/129 102/6/129 98/26/129
f 98/26/130 96/12/130 100/6/130
f 97/13/131 98/26/131 102/6/131
f 102/6/56 103/11/56 104/17/56
f 104/17/132 101/6/132 97/13/132
f 103/11/56 107/11/56 108/17/56
f 105/10/57 109/10/57 110/7/57
f 105/10/58 104/17/58 108/17/58
f 98/26/59 114/26/133 113/12/59
f 114/26/134 118/26/134 117/12/134
f 95/14/61 112/14/61 111/13/61
f 98/26/62 97/13/62 111/13/62
f 95/14/63 96/12/63 113/12/63
f 117/12/64 118/26/64 122/26/64
f 112/14/135 116/14/135 115/13/135
f 114/26/136 111/13/136 115/13/136
f 112/14/137 113/12/137 117/12/137
f 120/14/138 121/12/138 122/26/138
f 115/13/69 116/14/69 120/14/69
f 115/13/70 119/13/70 122/26/70
f 117/12/71 121/12/71 120/14/71
f 9/7/139 8/6/140 6/9/141
f 20/10/16 18/17/24 17/11/17
f 9/7/139 12/6/74 8/6/140
usemtl Material.002
f 36/14/142 37/26/142 38/13/142
f 39/26/143 36/17/143 40/13/143
f 38/10/144 41/18/144 42/19/144
f 36/22/145 42/7/145 40/11/145
f 46/26/146 49/17/146 45/13/146
f 49/14/147 48/26/147 47/13/147
f 50/17/148 46/7/148 45/10/148
f 51/20/149 44/10/149 48/21/149
f 47/9/150 44/10/150 50/7/150
f 39/26/151 43/11/151 36/17/151
f 42/17/152 41/11/152 39/7/152
f 38/10/153 37/7/153 41/18/153
f 43/20/154 39/17/154 41/10/154
f 36/22/155 38/9/155 42/7/155
f 46/26/156 51/11/156 49/17/156
f 50/17/157 44/11/157 46/7/157
f 51/20/158 46/17/158 44/10/158
f 49/22/159 47/9/159 50/7/159
f 47/9/160 48/26/160 44/10/160
usemtl Material.003
f 7/15/20 10/15/20 13/16/20
usemtl Material.004
f 17/11/161 23/12/162 19/7/163
f 21/26/164 18/17/165 22/13/166
f 31/26/167 34/17/168 30/13/169
f 34/17/170 28/21/171 30/20/172
f 35/11/173 29/9/173 33/7/173
f 24/14/174 19/7/175 23/12/176
f 31/26/167 35/11/177 34/17/168
f 34/17/170 32/10/178 28/21/171
f 35/11/179 31/22/179 29/9/179
f 18/17/180 24/14/181 22/13/182
f 17/11/161 21/26/183 23/12/162
f 21/26/164 17/11/184 18/17/165
f 24/14/174 20/10/185 19/7/175
f 18/17/180 20/10/186 24/14/181
usemtl Material.005
f 26/6/187 2/6/188 3/6/189
f 11/6/1 25/6/8 1/6/2
f 2/6/190 12/6/74 11/6/1
f 26/6/187 8/6/191 2/6/188
f 11/6/1 12/6/74 25/6/8
f 2/6/190 8/6/140 12/6/74
l 54 58
l 14 15
l 12 15