# Blender 4.5.4 LTS
# www.blender.org
mtllib anillo.mtl
o Cylinder
v 0.004418 -0.011866 -2.120166
v 0.003080 -0.007737 -1.478637
v 0.553034 -0.010996 -2.046788
v 0.385691 -0.007130 -1.427462
v 1.063962 -0.009388 -1.833924
v 0.742018 -0.006009 -1.279008
v 1.502383 -0.007154 -1.496081
v 1.047777 -0.004451 -1.043393
v 1.838418 -0.004443 -1.056282
v 1.282132 -0.002561 -0.736672
v 2.049169 -0.001443 -0.544500
v 1.429112 -0.000468 -0.379749
v 2.120272 0.001644 0.004391
v 1.478701 0.001685 0.003053
v 2.046882 0.004607 0.552982
v 1.427518 0.003751 0.385647
v 1.834001 0.007243 1.063889
v 1.279052 0.005590 0.741959
v 1.496136 0.009373 1.502293
v 1.043420 0.007076 1.047708
v 1.056311 0.010853 1.838320
v 0.736682 0.008107 1.282056
v 0.544501 0.011581 2.049068
v 0.379739 0.008615 1.429035
v -0.004417 0.011507 2.120177
v -0.003081 0.008563 1.478626
v -0.553033 0.010637 2.046798
v -0.385693 0.007957 1.427451
v -1.063960 0.009029 1.833935
v -0.742019 0.006836 1.278998
v -1.502381 0.006795 1.496092
v -1.047779 0.005277 1.043383
v -1.838417 0.004084 1.056293
v -1.282134 0.003387 0.736662
v -2.049167 0.001084 0.544510
v -1.429114 0.001294 0.379739
v -2.120270 -0.002003 -0.004380
v -1.478702 -0.000859 -0.003064
v -2.046881 -0.004966 -0.552971
v -1.427519 -0.002925 -0.385657
v -1.833999 -0.007602 -1.063878
v -1.279053 -0.004763 -0.741970
v -1.496134 -0.009732 -1.502283
v -1.043422 -0.006249 -1.047718
v -1.056309 -0.011212 -1.838310
v -0.736683 -0.007281 -1.282067
v -0.544499 -0.011940 -2.049058
v -0.379741 -0.007788 -1.429045
v 0.553033 -0.010403 -2.046798
v 0.004417 -0.011273 -2.120176
v 1.063960 -0.008796 -1.833935
v 1.502381 -0.006561 -1.496092
v 1.838417 -0.003851 -1.056293
v 2.049167 -0.000850 -0.544510
v 2.120271 0.002237 0.004380
v 2.046881 0.005199 0.552971
v 1.834000 0.007836 1.063878
v 1.496134 0.009966 1.502283
v 1.056309 0.011446 1.838310
v 0.544499 0.012173 2.049058
v -0.004418 0.012100 2.120166
v -0.553034 0.011229 2.046788
v -1.063962 0.009622 1.833924
v -1.502383 0.007387 1.496081
v -1.838418 0.004677 1.056283
v -2.049169 0.001676 0.544500
v -2.120272 -0.001410 -0.004391
v -2.046882 -0.004373 -0.552982
v -1.834001 -0.007009 -1.063889
v -1.496135 -0.009140 -1.502293
v -1.056311 -0.010619 -1.838320
v -0.544501 -0.011347 -2.049068
v 0.553033 -0.010403 -2.046798
v 0.004417 -0.011273 -2.120176
v 1.063960 -0.008796 -1.833935
v 1.502381 -0.006561 -1.496092
v 1.838417 -0.003851 -1.056293
v 2.049167 -0.000850 -0.544510
v 2.120271 0.002237 0.004380
v 2.046881 0.005199 0.552971
v 1.834000 0.007836 1.063878
v 1.496134 0.009966 1.502283
v 1.056309 0.011446 1.838310
v 0.544499 0.012173 2.049058
v -0.004418 0.012100 2.120166
v -0.553034 0.011229 2.046788
v -1.063962 0.009622 1.833924
v -1.502383 0.007387 1.496081
v -1.838418 0.004677 1.056283
v -2.049169 0.001676 0.544500
v -2.120272 -0.001410 -0.004391
v -2.046882 -0.004373 -0.552982
v -1.834001 -0.007009 -1.063889
v -1.496135 -0.009140 -1.502293
v -1.056311 -0.010619 -1.838320
v -0.544501 -0.011347 -2.049068
vn 0.1326 -0.0176 -0.9910
vn 0.3846 -0.0151 -0.9230
vn 0.6104 -0.0124 -0.7920
vn 0.7946 -0.0088 -0.6071
vn 0.9247 -0.0043 -0.3808
vn 0.9917 0.0003 -0.1285
vn 0.9912 0.0049 0.1326
vn 0.9231 0.0091 0.3846
vn 0.7920 0.0128 0.6103
vn 0.6071 0.0157 0.7945
vn 0.3807 0.0173 0.9245
vn 0.1284 0.0175 0.9916
vn -0.1326 0.0172 0.9910
vn -0.3846 0.0151 0.9230
vn -0.6104 0.0124 0.7920
vn -0.7946 0.0087 0.6071
vn -0.9247 0.0044 0.3807
vn -0.9917 -0.0003 0.1285
vn -0.9912 -0.0049 -0.1326
vn -0.9231 -0.0092 -0.3846
vn -0.7920 -0.0129 -0.6103
vn -0.6071 -0.0157 -0.7945
vn -0.3807 -0.0171 -0.9245
vn -0.1284 -0.0175 -0.9916
vn -0.0015 1.0000 -0.0099
vn -0.0008 1.0000 -0.0055
vt 1.000000 0.500000
vt 1.000000 1.000000
vt 0.958333 1.000000
vt 0.958333 0.500000
vt 0.916667 1.000000
vt 0.916667 0.500000
vt 0.875000 1.000000
vt 0.875000 0.500000
vt 0.833333 1.000000
vt 0.833333 0.500000
vt 0.791667 1.000000
vt 0.791667 0.500000
vt 0.750000 1.000000
vt 0.750000 0.500000
vt 0.708333 1.000000
vt 0.708333 0.500000
vt 0.666667 1.000000
vt 0.666667 0.500000
vt 0.625000 1.000000
vt 0.625000 0.500000
vt 0.583333 1.000000
vt 0.583333 0.500000
vt 0.541666 1.000000
vt 0.541666 0.500000
vt 0.500000 1.000000
vt 0.500000 0.500000
vt 0.458333 1.000000
vt 0.458333 0.500000
vt 0.416666 1.000000
vt 0.416666 0.500000
vt 0.375000 1.000000
vt 0.375000 0.500000
vt 0.333333 1.000000
vt 0.333333 0.500000
vt 0.291667 1.000000
vt 0.291667 0.500000
vt 0.250000 1.000000
vt 0.250000 0.500000
vt 0.208333 1.000000
vt 0.208333 0.500000
vt 0.166666 1.000000
vt 0.166666 0.500000
vt 0.125000 1.000000
vt 0.125000 0.500000
vt 0.083333 1.000000
vt 0.083333 0.500000
vt 0.041666 1.000000
vt 0.041666 0.500000
vt -0.000000 1.000000
vt -0.000000 0.500000
vt 0.250000 0.490000
vt 0.312117 0.481822
vt 0.370000 0.457846
vt 0.419706 0.419706
vt 0.457846 0.370000
vt 0.481822 0.312117
vt 0.490000 0.250000
vt 0.481822 0.187883
vt 0.457846 0.130000
vt 0.419706 0.080294
vt 0.370000 0.042154
vt 0.312117 0.018178
vt 0.250000 0.010000
vt 0.187883 0.018178
vt 0.130000 0.042154
vt 0.080294 0.080294
vt 0.042154 0.130000
vt 0.018178 0.187883
vt 0.010000 0.250000
vt 0.018178 0.312117
vt 0.042154 0.370000
vt 0.080294 0.419706
vt 0.130000 0.457846
vt 0.187883 0.481822
vt 0.250000 0.417379
vt 0.293321 0.411675
vt 0.333689 0.394954
vt 0.368355 0.368355
vt 0.394954 0.333689
vt 0.411675 0.293321
vt 0.417379 0.250000
vt 0.411675 0.206679
vt 0.394954 0.166311
vt 0.368355 0.131645
vt 0.333689 0.105046
vt 0.293321 0.088325
vt 0.250000 0.082621
vt 0.206679 0.088325
vt 0.166311 0.105046
vt 0.131645 0.131645
vt 0.105046 0.166311
vt 0.088325 0.206679
vt 0.082621 0.250000
vt 0.088325 0.293321
vt 0.105046 0.333689
vt 0.131645 0.368355
vt 0.166311 0.394954
vt 0.206679 0.411675
s 0
f 1/1/1 50/2/1 49/3/1 3/4/1
f 3/4/2 49/3/2 51/5/2 5/6/2
f 5/6/3 51/5/3 52/7/3 7/8/3
f 7/8/4 52/7/4 53/9/4 9/10/4
f 9/10/5 53/9/5 54/11/5 11/12/5
f 11/12/6 54/11/6 55/13/6 13/14/6
f 13/14/7 55/13/7 56/15/7 15/16/7
f 15/16/8 56/15/8 57/17/8 17/18/8
f 17/18/9 57/17/9 58/19/9 19/20/9
f 19/20/10 58/19/10 59/21/10 21/22/10
f 21/22/11 59/21/11 60/23/11 23/24/11
f 23/24/12 60/23/12 61/25/12 25/26/12
f 25/26/13 61/25/13 62/27/13 27/28/13
f 27/28/14 62/27/14 63/29/14 29/30/14
f 29/30/15 63/29/15 64/31/15 31/32/15
f 31/32/16 64/31/16 65/33/16 33/34/16
f 33/34/17 65/33/17 66/35/17 35/36/17
f 35/36/18 66/35/18 67/37/18 37/38/18
f 37/38/19 67/37/19 68/39/19 39/40/19
f 39/40/20 68/39/20 69/41/20 41/42/20
f 41/42/21 69/41/21 70/43/21 43/44/21
f 43/44/22 70/43/22 71/45/22 45/46/22
f 45/46/23 71/45/23 72/47/23 47/48/23
f 47/48/24 72/47/24 50/49/24 1/50/24
f 74/51/25 73/52/25 49/52/25 50/51/25
f 73/52/25 75/53/25 51/53/25 49/52/25
f 75/53/25 76/54/25 52/54/25 51/53/25
f 76/54/25 77/55/25 53/55/25 52/54/25
f 77/55/25 78/56/25 54/56/25 53/55/25
f 78/56/25 79/57/25 55/57/25 54/56/25
f 79/57/25 80/58/25 56/58/25 55/57/25
f 80/58/25 81/59/25 57/59/25 56/58/25
f 81/59/25 82/60/25 58/60/25 57/59/25
f 82/60/25 83/61/25 59/61/25 58/60/25
f 83/61/25 84/62/25 60/62/25 59/61/25
f 84/62/25 85/63/25 61/63/25 60/62/25
f 85/63/25 86/64/25 62/64/25 61/63/25
f 86/64/25 87/65/25 63/65/25 62/64/25
f 87/65/25 88/66/25 64/66/25 63/65/25
f 88/66/25 89/67/25 65/67/25 64/66/25
f 89/67/25 90/68/25 66/68/25 65/67/25
f 90/68/25 91/69/25 67/69/25 66/68/25
f 91/69/25 92/70/25 68/70/25 67/69/25
f 92/70/25 93/71/25 69/71/25 68/70/25
f 93/71/25 94/72/25 70/72/25 69/71/25
f 94/72/25 95/73/25 71/73/25 70/72/25
f 95/73/25 96/74/25 72/74/25 71/73/25
f 96/74/25 74/51/25 50/51/25 72/74/25
f 2/75/26 4/76/26 73/52/26 74/51/26
f 4/76/26 6/77/26 75/53/26 73/52/26
f 6/77/26 8/78/26 76/54/26 75/53/26
f 8/78/26 10/79/26 77/55/26 76/54/26
f 10/79/26 12/80/26 78/56/26 77/55/26
f 12/80/26 14/81/26 79/57/26 78/56/26
f 14/81/26 16/82/26 80/58/26 79/57/26
f 16/82/26 18/83/26 81/59/26 80/58/26
f 18/83/26 20/84/26 82/60/26 81/59/26
f 20/84/26 22/85/26 83/61/26 82/60/26
f 22/85/26 24/86/26 84/62/26 83/61/26
f 24/86/26 26/87/26 85/63/26 84/62/26
f 26/87/26 28/88/26 86/64/26 85/63/26
f 28/88/26 30/89/26 87/65/26 86/64/26
f 30/89/26 32/90/26 88/66/26 87/65/26
f 32/90/26 34/91/26 89/67/26 88/66/26
f 34/91/26 36/92/26 90/68/26 89/67/26
f 36/92/26 38/93/26 91/69/26 90/68/26
f 38/93/26 40/94/26 92/70/26 91/69/26
f 40/94/26 42/95/26 93/71/26 92/70/26
f 42/95/26 44/96/26 94/72/26 93/71/26
f 44/96/26 46/97/26 95/73/26 94/72/26
f 46/97/26 48/98/26 96/74/26 95/73/26
f 48/98/26 2/75/26 74/51/26 96/74/26
