# Blender 4.5.4 LTS
# www.blender.org
mtllib Esfera_Low.mtl
o Sphere
v 0.000000 0.965926 -0.258819
v 0.000000 0.866025 -0.500000
v 0.000000 0.500000 -0.866025
v 0.000000 0.258819 -0.965926
v 0.000000 0.000000 -1.000000
v 0.000000 -0.258819 -0.965926
v 0.000000 -0.500000 -0.866025
v 0.000000 -0.866025 -0.500000
v 0.000000 -0.965926 -0.258819
v 0.099046 0.965926 -0.239118
v 0.191342 0.866025 -0.461940
v 0.270598 0.707107 -0.653281
v 0.331414 0.500000 -0.800103
v 0.369644 0.258819 -0.892399
v 0.382683 0.000000 -0.923880
v 0.369644 -0.258819 -0.892399
v 0.331414 -0.500000 -0.800103
v 0.270598 -0.707107 -0.653281
v 0.191342 -0.866025 -0.461940
v 0.099046 -0.965926 -0.239118
v 0.000000 1.000000 0.000000
v 0.183013 0.965926 -0.183013
v 0.353553 0.866025 -0.353553
v 0.500000 0.707107 -0.500000
v 0.612372 0.500000 -0.612372
v 0.683013 0.258819 -0.683013
v 0.707107 0.000000 -0.707107
v 0.683013 -0.258819 -0.683013
v 0.612372 -0.500000 -0.612372
v 0.500000 -0.707107 -0.500000
v 0.353553 -0.866025 -0.353553
v 0.183013 -0.965926 -0.183013
v 0.239118 0.965926 -0.099046
v 0.461940 0.866025 -0.191342
v 0.653281 0.707107 -0.270598
v 0.800103 0.500000 -0.331413
v 0.892399 0.258819 -0.369644
v 0.923880 0.000000 -0.382683
v 0.892399 -0.258819 -0.369644
v 0.800103 -0.500000 -0.331413
v 0.653281 -0.707107 -0.270598
v 0.461940 -0.866025 -0.191342
v 0.239118 -0.965926 -0.099046
v 0.258819 0.965926 0.000000
v 0.500000 0.866025 0.000000
v 0.707107 0.707107 0.000000
v 0.866025 0.500000 0.000000
v 0.965926 0.258819 0.000000
v 1.000000 0.000000 0.000000
v 0.965926 -0.258819 0.000000
v 0.866025 -0.500000 0.000000
v 0.707107 -0.707107 0.000000
v 0.500000 -0.866025 0.000000
v 0.258819 -0.965926 0.000000
v 0.239118 0.965926 0.099046
v 0.461940 0.866025 0.191342
v 0.653281 0.707107 0.270598
v 0.800103 0.500000 0.331414
v 0.892399 0.258819 0.369644
v 0.923879 0.000000 0.382684
v 0.892399 -0.258819 0.369644
v 0.800103 -0.500000 0.331414
v 0.653281 -0.707107 0.270598
v 0.461940 -0.866025 0.191342
v 0.239118 -0.965926 0.099046
v 0.183013 0.965926 0.183013
v 0.353553 0.866025 0.353553
v 0.500000 0.707107 0.500000
v 0.612372 0.500000 0.612373
v 0.683012 0.258819 0.683013
v 0.707107 0.000000 0.707107
v 0.683012 -0.258819 0.683013
v 0.612372 -0.500000 0.612373
v 0.500000 -0.707107 0.500000
v 0.353553 -0.866025 0.353553
v 0.183013 -0.965926 0.183013
v 0.099046 0.965926 0.239118
v 0.191342 0.866025 0.461940
v 0.270598 0.707107 0.653281
v 0.331413 0.500000 0.800103
v 0.369644 0.258819 0.892399
v 0.382683 0.000000 0.923880
v 0.369644 -0.258819 0.892399
v 0.331413 -0.500000 0.800103
v 0.270598 -0.707107 0.653281
v 0.191342 -0.866025 0.461940
v 0.099046 -0.965926 0.239118
v -0.000000 0.965926 0.258819
v -0.000000 0.866025 0.500000
v -0.000000 0.707107 0.707107
v -0.000000 0.500000 0.866025
v -0.000000 0.258819 0.965926
v -0.000000 0.000000 1.000000
v -0.000000 -0.258819 0.965926
v -0.000000 -0.500000 0.866025
v -0.000000 -0.707107 0.707107
v -0.000000 -0.866025 0.500000
v -0.000000 -0.965926 0.258819
v -0.099046 0.965926 0.239118
v -0.191342 0.866025 0.461940
v -0.270598 0.707107 0.653281
v -0.331414 0.500000 0.800103
v -0.369644 0.258819 0.892399
v -0.382684 0.000000 0.923879
v -0.369644 -0.258819 0.892399
v -0.331414 -0.500000 0.800103
v -0.270598 -0.707107 0.653281
v -0.191342 -0.866025 0.461940
v -0.099046 -0.965926 0.239118
v 0.000000 -1.000000 0.000000
v -0.183013 0.965926 0.183013
v -0.353554 0.866025 0.353553
v -0.500000 0.707107 0.500000
v -0.612373 0.500000 0.612372
v -0.683013 0.258819 0.683012
v -0.707107 0.000000 0.707106
v -0.683013 -0.258819 0.683012
v -0.612373 -0.500000 0.612372
v -0.500000 -0.707107 0.500000
v -0.353554 -0.866025 0.353553
v -0.183013 -0.965926 0.183013
v -0.239118 0.965926 0.099046
v -0.461940 0.866025 0.191341
v -0.653281 0.707107 0.270598
v -0.800103 0.500000 0.331413
v -0.892399 0.258819 0.369643
v -0.923880 0.000000 0.382683
v -0.892399 -0.258819 0.369643
v -0.800103 -0.500000 0.331413
v -0.653281 -0.707107 0.270598
v -0.461940 -0.866025 0.191341
v -0.239118 -0.965926 0.099046
v -0.258819 0.965926 -0.000000
v -0.500000 0.866025 -0.000000
v -0.707107 0.707107 -0.000000
v -0.866025 0.500000 -0.000000
v -0.965926 0.258819 -0.000000
v -1.000000 0.000000 -0.000001
v -0.965926 -0.258819 -0.000000
v -0.866025 -0.500000 -0.000000
v -0.707107 -0.707107 -0.000000
v -0.500000 -0.866025 -0.000000
v -0.258819 -0.965926 -0.000000
v -0.239118 0.965926 -0.099046
v -0.461940 0.866025 -0.191342
v -0.653281 0.707107 -0.270598
v -0.800103 0.500000 -0.331414
v -0.892399 0.258819 -0.369644
v -0.923879 0.000000 -0.382684
v -0.892399 -0.258819 -0.369644
v -0.800103 -0.500000 -0.331414
v -0.653281 -0.707107 -0.270598
v -0.461940 -0.866025 -0.191342
v -0.239118 -0.965926 -0.099046
v -0.183013 0.965926 -0.183013
v -0.353553 0.866025 -0.353554
v -0.500000 0.707107 -0.500000
v -0.612372 0.500000 -0.612373
v -0.683012 0.258819 -0.683013
v -0.707106 0.000000 -0.707107
v -0.683012 -0.258819 -0.683013
v -0.612372 -0.500000 -0.612373
v -0.500000 -0.707107 -0.500000
v -0.353553 -0.866025 -0.353554
v -0.183013 -0.965926 -0.183013
v -0.099046 0.965926 -0.239118
v -0.191341 0.866025 -0.461940
v -0.270598 0.707107 -0.653281
v -0.331413 0.500000 -0.800103
v -0.369643 0.258819 -0.892399
v -0.382683 0.000000 -0.923880
v -0.369643 -0.258819 -0.892399
v -0.331413 -0.500000 -0.800103
v -0.270598 -0.707107 -0.653281
v -0.191341 -0.866025 -0.461940
v -0.099046 -0.965926 -0.239118
v 0.000000 0.707107 -0.707107
v 0.000000 -0.707107 -0.707107
vn -0.0000 0.9618 -0.2739
vn -0.0000 0.8590 -0.5120
vn -0.0000 0.4931 -0.8700
vn -0.0000 0.2549 -0.9670
vn -0.0000 -0.0000 -1.0000
vn -0.0000 -0.2549 -0.9670
vn -0.0000 -0.4931 -0.8700
vn -0.0000 -0.8590 -0.5120
vn -0.0000 -0.9618 -0.2739
vn 0.1048 0.9618 -0.2531
vn 0.1959 0.8590 -0.4730
vn 0.2736 0.6991 -0.6606
vn 0.3329 0.4931 -0.8038
vn 0.3700 0.2549 -0.8934
vn 0.3827 -0.0000 -0.9239
vn 0.3700 -0.2549 -0.8934
vn 0.3329 -0.4931 -0.8038
vn 0.2736 -0.6991 -0.6606
vn 0.1959 -0.8590 -0.4730
vn 0.1048 -0.9618 -0.2531
vn -0.0000 1.0000 -0.0000
vn 0.1937 0.9618 -0.1937
vn 0.3621 0.8590 -0.3621
vn 0.5056 0.6991 -0.5056
vn 0.6152 0.4931 -0.6152
vn 0.6838 0.2549 -0.6838
vn 0.7071 -0.0000 -0.7071
vn 0.6838 -0.2549 -0.6838
vn 0.6152 -0.4931 -0.6152
vn 0.5056 -0.6991 -0.5056
vn 0.3621 -0.8590 -0.3621
vn 0.1937 -0.9618 -0.1937
vn 0.2531 0.9618 -0.1048
vn 0.4730 0.8590 -0.1959
vn 0.6606 0.6991 -0.2736
vn 0.8038 0.4931 -0.3329
vn 0.8934 0.2549 -0.3700
vn 0.9239 -0.0000 -0.3827
vn 0.8934 -0.2549 -0.3700
vn 0.8038 -0.4931 -0.3329
vn 0.6606 -0.6991 -0.2736
vn 0.4730 -0.8590 -0.1959
vn 0.2531 -0.9618 -0.1048
vn 0.2739 0.9618 -0.0000
vn 0.5120 0.8590 -0.0000
vn 0.7151 0.6991 -0.0000
vn 0.8700 0.4931 -0.0000
vn 0.9670 0.2549 -0.0000
vn 1.0000 -0.0000 -0.0000
vn 0.9670 -0.2549 -0.0000
vn 0.8700 -0.4931 -0.0000
vn 0.7151 -0.6991 -0.0000
vn 0.5120 -0.8590 -0.0000
vn 0.2739 -0.9618 -0.0000
vn 0.2531 0.9618 0.1048
vn 0.4730 0.8590 0.1959
vn 0.6606 0.6991 0.2736
vn 0.8038 0.4931 0.3329
vn 0.8934 0.2549 0.3700
vn 0.9239 -0.0000 0.3827
vn 0.8934 -0.2549 0.3700
vn 0.8038 -0.4931 0.3329
vn 0.6606 -0.6991 0.2736
vn 0.4730 -0.8590 0.1959
vn 0.2531 -0.9618 0.1048
vn 0.1937 0.9618 0.1937
vn 0.3621 0.8590 0.3621
vn 0.5056 0.6991 0.5056
vn 0.6152 0.4931 0.6152
vn 0.6838 0.2549 0.6838
vn 0.7071 -0.0000 0.7071
vn 0.6838 -0.2549 0.6838
vn 0.6152 -0.4931 0.6152
vn 0.5056 -0.6991 0.5056
vn 0.3621 -0.8590 0.3621
vn 0.1937 -0.9618 0.1937
vn 0.1048 0.9618 0.2531
vn 0.1959 0.8590 0.4730
vn 0.2736 0.6991 0.6606
vn 0.3329 0.4931 0.8038
vn 0.3700 0.2549 0.8934
vn 0.3827 -0.0000 0.9239
vn 0.3700 -0.2549 0.8934
vn 0.3329 -0.4931 0.8038
vn 0.2736 -0.6991 0.6606
vn 0.1959 -0.8590 0.4730
vn 0.1048 -0.9618 0.2531
vn -0.0000 0.9618 0.2739
vn -0.0000 0.8590 0.5120
vn -0.0000 0.6991 0.7151
vn -0.0000 0.4931 0.8700
vn -0.0000 0.2549 0.9670
vn -0.0000 -0.0000 1.0000
vn -0.0000 -0.2549 0.9670
vn -0.0000 -0.4931 0.8700
vn -0.0000 -0.6991 0.7151
vn -0.0000 -0.8590 0.5120
vn -0.0000 -0.9618 0.2739
vn -0.1048 0.9618 0.2531
vn -0.1959 0.8590 0.4730
vn -0.2736 0.6991 0.6606
vn -0.3329 0.4931 0.8038
vn -0.3700 0.2549 0.8934
vn -0.3827 -0.0000 0.9239
vn -0.3700 -0.2549 0.8934
vn -0.3329 -0.4931 0.8038
vn -0.2736 -0.6991 0.6606
vn -0.1959 -0.8590 0.4730
vn -0.1048 -0.9618 0.2531
vn -0.0000 -1.0000 -0.0000
vn -0.1937 0.9618 0.1937
vn -0.3621 0.8590 0.3621
vn -0.5056 0.6991 0.5056
vn -0.6152 0.4931 0.6152
vn -0.6838 0.2549 0.6838
vn -0.7071 -0.0000 0.7071
vn -0.6838 -0.2549 0.6838
vn -0.6152 -0.4931 0.6152
vn -0.5056 -0.6991 0.5056
vn -0.3621 -0.8590 0.3621
vn -0.1937 -0.9618 0.1937
vn -0.2531 0.9618 0.1048
vn -0.4730 0.8590 0.1959
vn -0.6606 0.6991 0.2736
vn -0.8038 0.4931 0.3329
vn -0.8934 0.2549 0.3700
vn -0.9239 -0.0000 0.3827
vn -0.8934 -0.2549 0.3700
vn -0.8038 -0.4931 0.3329
vn -0.6606 -0.6991 0.2736
vn -0.4730 -0.8590 0.1959
vn -0.2531 -0.9618 0.1048
vn -0.2739 0.9618 -0.0000
vn -0.5120 0.8590 -0.0000
vn -0.7151 0.6991 -0.0000
vn -0.8700 0.4931 -0.0000
vn -0.9670 0.2549 -0.0000
vn -1.0000 -0.0000 -0.0000
vn -0.9670 -0.2549 -0.0000
vn -0.8700 -0.4931 -0.0000
vn -0.7151 -0.6991 -0.0000
vn -0.5120 -0.8590 -0.0000
vn -0.2739 -0.9618 -0.0000
vn -0.2531 0.9618 -0.1048
vn -0.4730 0.8590 -0.1959
vn -0.6606 0.6991 -0.2736
vn -0.8038 0.4931 -0.3329
vn -0.8934 0.2549 -0.3700
vn -0.9239 -0.0000 -0.3827
vn -0.8934 -0.2549 -0.3700
vn -0.8038 -0.4931 -0.3329
vn -0.6606 -0.6991 -0.2736
vn -0.4730 -0.8590 -0.1959
vn -0.2531 -0.9618 -0.1048
vn -0.1937 0.9618 -0.1937
vn -0.3621 0.8590 -0.3621
vn -0.5056 0.6991 -0.5056
vn -0.6152 0.4931 -0.6152
vn -0.6838 0.2549 -0.6838
vn -0.7071 -0.0000 -0.7071
vn -0.6838 -0.2549 -0.6838
vn -0.6152 -0.4931 -0.6152
vn -0.5056 -0.6991 -0.5056
vn -0.3621 -0.8590 -0.3621
vn -0.1937 -0.9618 -0.1937
vn -0.1048 0.9618 -0.2531
vn -0.1959 0.8590 -0.4730
vn -0.2736 0.6991 -0.6606
vn -0.3329 0.4931 -0.8038
vn -0.3700 0.2549 -0.8934
vn -0.3827 -0.0000 -0.9239
vn -0.3700 -0.2549 -0.8934
vn -0.3329 -0.4931 -0.8038
vn -0.2736 -0.6991 -0.6606
vn -0.1959 -0.8590 -0.4730
vn -0.1048 -0.9618 -0.2531
vn -0.0000 0.6991 -0.7151
vn -0.0000 -0.6991 -0.7151
vt 0.750000 0.750000
vt 0.750000 0.833333
vt 0.687500 0.833333
vt 0.687500 0.750000
vt 0.750000 0.166667
vt 0.750000 0.250000
vt 0.687500 0.250000
vt 0.687500 0.166667
vt 0.750000 0.416667
vt 0.750000 0.500000
vt 0.687500 0.500000
vt 0.687500 0.416667
vt 0.750000 0.666667
vt 0.687500 0.666667
vt 0.750000 0.083333
vt 0.687500 0.083333
vt 0.750000 0.916667
vt 0.718750 1.000000
vt 0.687500 0.916667
vt 0.750000 0.333333
vt 0.687500 0.333333
vt 0.750000 0.583333
vt 0.687500 0.583333
vt 0.718750 0.000000
vt 0.625000 0.416667
vt 0.625000 0.333333
vt 0.625000 0.666667
vt 0.625000 0.583333
vt 0.656250 0.000000
vt 0.625000 0.083333
vt 0.625000 0.916667
vt 0.625000 0.833333
vt 0.625000 0.250000
vt 0.625000 0.500000
vt 0.625000 0.750000
vt 0.625000 0.166667
vt 0.656250 1.000000
vt 0.562500 0.500000
vt 0.562500 0.416667
vt 0.562500 0.750000
vt 0.562500 0.666667
vt 0.562500 0.166667
vt 0.562500 0.083333
vt 0.593750 1.000000
vt 0.562500 0.916667
vt 0.562500 0.333333
vt 0.562500 0.583333
vt 0.593750 0.000000
vt 0.562500 0.833333
vt 0.562500 0.250000
vt 0.500000 0.333333
vt 0.500000 0.250000
vt 0.500000 0.583333
vt 0.500000 0.500000
vt 0.500000 0.833333
vt 0.500000 0.750000
vt 0.500000 0.166667
vt 0.500000 0.416667
vt 0.500000 0.666667
vt 0.500000 0.083333
vt 0.531250 1.000000
vt 0.500000 0.916667
vt 0.531250 0.000000
vt 0.468750 1.000000
vt 0.437500 0.916667
vt 0.437500 0.416667
vt 0.437500 0.333333
vt 0.437500 0.666667
vt 0.437500 0.583333
vt 0.468750 0.000000
vt 0.437500 0.083333
vt 0.437500 0.833333
vt 0.437500 0.250000
vt 0.437500 0.500000
vt 0.437500 0.750000
vt 0.437500 0.166667
vt 0.375000 0.250000
vt 0.375000 0.166667
vt 0.375000 0.500000
vt 0.375000 0.416667
vt 0.375000 0.750000
vt 0.375000 0.666667
vt 0.375000 0.083333
vt 0.406250 1.000000
vt 0.375000 0.916667
vt 0.375000 0.333333
vt 0.375000 0.583333
vt 0.406250 0.000000
vt 0.375000 0.833333
vt 0.312500 0.916667
vt 0.312500 0.833333
vt 0.312500 0.333333
vt 0.312500 0.250000
vt 0.312500 0.583333
vt 0.312500 0.500000
vt 0.312500 0.750000
vt 0.312500 0.166667
vt 0.312500 0.416667
vt 0.312500 0.666667
vt 0.312500 0.083333
vt 0.343750 1.000000
vt 0.343750 0.000000
vt 0.250000 0.166667
vt 0.250000 0.083333
vt 0.281250 1.000000
vt 0.250000 0.916667
vt 0.250000 0.416667
vt 0.250000 0.333333
vt 0.250000 0.666667
vt 0.250000 0.583333
vt 0.281250 0.000000
vt 0.250000 0.833333
vt 0.250000 0.250000
vt 0.250000 0.500000
vt 0.250000 0.750000
vt 0.187500 0.833333
vt 0.187500 0.750000
vt 0.187500 0.250000
vt 0.187500 0.166667
vt 0.187500 0.500000
vt 0.187500 0.416667
vt 0.187500 0.666667
vt 0.187500 0.083333
vt 0.218750 1.000000
vt 0.187500 0.916667
vt 0.187500 0.333333
vt 0.187500 0.583333
vt 0.218750 0.000000
vt 0.156250 0.000000
vt 0.125000 0.083333
vt 0.125000 0.916667
vt 0.125000 0.833333
vt 0.125000 0.333333
vt 0.125000 0.250000
vt 0.125000 0.583333
vt 0.125000 0.500000
vt 0.125000 0.750000
vt 0.125000 0.166667
vt 0.125000 0.416667
vt 0.125000 0.666667
vt 0.156250 1.000000
vt 0.062500 0.750000
vt 0.062500 0.666667
vt 0.062500 0.166667
vt 0.062500 0.083333
vt 0.093750 1.000000
vt 0.062500 0.916667
vt 0.062500 0.416667
vt 0.062500 0.333333
vt 0.062500 0.583333
vt 0.093750 0.000000
vt 0.062500 0.833333
vt 0.062500 0.250000
vt 0.062500 0.500000
vt 0.000000 0.833333
vt 0.000000 0.750000
vt 0.000000 0.250000
vt 0.000000 0.166667
vt 0.000000 0.500000
vt 0.000000 0.416667
vt 0.000000 0.666667
vt 0.000000 0.083333
vt 0.031250 1.000000
vt 0.000000 0.916667
vt 0.000000 0.333333
vt 0.000000 0.583333
vt 0.031250 0.000000
vt 1.000000 0.583333
vt 1.000000 0.666667
vt 0.937500 0.666667
vt 0.937500 0.583333
vt 0.968750 0.000000
vt 1.000000 0.083333
vt 0.937500 0.083333
vt 1.000000 0.833333
vt 1.000000 0.916667
vt 0.937500 0.916667
vt 0.937500 0.833333
vt 1.000000 0.250000
vt 1.000000 0.333333
vt 0.937500 0.333333
vt 0.937500 0.250000
vt 1.000000 0.500000
vt 0.937500 0.500000
vt 1.000000 0.750000
vt 0.937500 0.750000
vt 1.000000 0.166667
vt 0.937500 0.166667
vt 1.000000 0.416667
vt 0.937500 0.416667
vt 0.968750 1.000000
vt 0.875000 0.750000
vt 0.875000 0.666667
vt 0.875000 0.166667
vt 0.875000 0.083333
vt 0.906250 1.000000
vt 0.875000 0.916667
vt 0.875000 0.416667
vt 0.875000 0.333333
vt 0.875000 0.583333
vt 0.906250 0.000000
vt 0.875000 0.833333
vt 0.875000 0.250000
vt 0.875000 0.500000
vt 0.812500 0.583333
vt 0.812500 0.500000
vt 0.812500 0.833333
vt 0.812500 0.750000
vt 0.812500 0.250000
vt 0.812500 0.166667
vt 0.812500 0.416667
vt 0.812500 0.666667
vt 0.812500 0.083333
vt 0.843750 1.000000
vt 0.812500 0.916667
vt 0.812500 0.333333
vt 0.843750 0.000000
vt 0.781250 0.000000
vt 0.781250 1.000000
s 1
f 177/1/177 2/2/2 11/3/11 12/4/12
f 8/5/8 178/6/178 18/7/18 19/8/19
f 6/9/6 5/10/5 15/11/15 16/12/16
f 3/13/3 177/1/177 12/4/12 13/14/13
f 9/15/9 8/5/8 19/8/19 20/16/20
f 1/17/1 21/18/21 10/19/10
f 7/20/7 6/9/6 16/12/16 17/21/17
f 4/22/4 3/13/3 13/14/13 14/23/14
f 110/24/110 9/15/9 20/16/20
f 2/2/2 1/17/1 10/19/10 11/3/11
f 178/6/178 7/20/7 17/21/17 18/7/18
f 5/10/5 4/22/4 14/23/14 15/11/15
f 17/21/17 16/12/16 28/25/28 29/26/29
f 14/23/14 13/14/13 25/27/25 26/28/26
f 110/29/110 20/16/20 32/30/32
f 11/3/11 10/19/10 22/31/22 23/32/23
f 18/7/18 17/21/17 29/26/29 30/33/30
f 15/11/15 14/23/14 26/28/26 27/34/27
f 12/4/12 11/3/11 23/32/23 24/35/24
f 19/8/19 18/7/18 30/33/30 31/36/31
f 16/12/16 15/11/15 27/34/27 28/25/28
f 13/14/13 12/4/12 24/35/24 25/27/25
f 20/16/20 19/8/19 31/36/31 32/30/32
f 10/19/10 21/37/21 22/31/22
f 28/25/28 27/34/27 38/38/38 39/39/39
f 25/27/25 24/35/24 35/40/35 36/41/36
f 32/30/32 31/36/31 42/42/42 43/43/43
f 22/31/22 21/44/21 33/45/33
f 29/26/29 28/25/28 39/39/39 40/46/40
f 26/28/26 25/27/25 36/41/36 37/47/37
f 110/48/110 32/30/32 43/43/43
f 23/32/23 22/31/22 33/45/33 34/49/34
f 30/33/30 29/26/29 40/46/40 41/50/41
f 27/34/27 26/28/26 37/47/37 38/38/38
f 24/35/24 23/32/23 34/49/34 35/40/35
f 31/36/31 30/33/30 41/50/41 42/42/42
f 41/50/41 40/46/40 51/51/51 52/52/52
f 38/38/38 37/47/37 48/53/48 49/54/49
f 35/40/35 34/49/34 45/55/45 46/56/46
f 42/42/42 41/50/41 52/52/52 53/57/53
f 39/39/39 38/38/38 49/54/49 50/58/50
f 36/41/36 35/40/35 46/56/46 47/59/47
f 43/43/43 42/42/42 53/57/53 54/60/54
f 33/45/33 21/61/21 44/62/44
f 40/46/40 39/39/39 50/58/50 51/51/51
f 37/47/37 36/41/36 47/59/47 48/53/48
f 110/63/110 43/43/43 54/60/54
f 34/49/34 33/45/33 44/62/44 45/55/45
f 44/62/44 21/64/21 55/65/55
f 51/51/51 50/58/50 61/66/61 62/67/62
f 48/53/48 47/59/47 58/68/58 59/69/59
f 110/70/110 54/60/54 65/71/65
f 45/55/45 44/62/44 55/65/55 56/72/56
f 52/52/52 51/51/51 62/67/62 63/73/63
f 49/54/49 48/53/48 59/69/59 60/74/60
f 46/56/46 45/55/45 56/72/56 57/75/57
f 53/57/53 52/52/52 63/73/63 64/76/64
f 50/58/50 49/54/49 60/74/60 61/66/61
f 47/59/47 46/56/46 57/75/57 58/68/58
f 54/60/54 53/57/53 64/76/64 65/71/65
f 64/76/64 63/73/63 74/77/74 75/78/75
f 61/66/61 60/74/60 71/79/71 72/80/72
f 58/68/58 57/75/57 68/81/68 69/82/69
f 65/71/65 64/76/64 75/78/75 76/83/76
f 55/65/55 21/84/21 66/85/66
f 62/67/62 61/66/61 72/80/72 73/86/73
f 59/69/59 58/68/58 69/82/69 70/87/70
f 110/88/110 65/71/65 76/83/76
f 56/72/56 55/65/55 66/85/66 67/89/67
f 63/73/63 62/67/62 73/86/73 74/77/74
f 60/74/60 59/69/59 70/87/70 71/79/71
f 57/75/57 56/72/56 67/89/67 68/81/68
f 67/89/67 66/85/66 77/90/77 78/91/78
f 74/77/74 73/86/73 84/92/84 85/93/85
f 71/79/71 70/87/70 81/94/81 82/95/82
f 68/81/68 67/89/67 78/91/78 79/96/79
f 75/78/75 74/77/74 85/93/85 86/97/86
f 72/80/72 71/79/71 82/95/82 83/98/83
f 69/82/69 68/81/68 79/96/79 80/99/80
f 76/83/76 75/78/75 86/97/86 87/100/87
f 66/85/66 21/101/21 77/90/77
f 73/86/73 72/80/72 83/98/83 84/92/84
f 70/87/70 69/82/69 80/99/80 81/94/81
f 110/102/110 76/83/76 87/100/87
f 87/100/87 86/97/86 97/103/97 98/104/98
f 77/90/77 21/105/21 88/106/88
f 84/92/84 83/98/83 94/107/94 95/108/95
f 81/94/81 80/99/80 91/109/91 92/110/92
f 110/111/110 87/100/87 98/104/98
f 78/91/78 77/90/77 88/106/88 89/112/89
f 85/93/85 84/92/84 95/108/95 96/113/96
f 82/95/82 81/94/81 92/110/92 93/114/93
f 79/96/79 78/91/78 89/112/89 90/115/90
f 86/97/86 85/93/85 96/113/96 97/103/97
f 83/98/83 82/95/82 93/114/93 94/107/94
f 80/99/80 79/96/79 90/115/90 91/109/91
f 90/115/90 89/112/89 100/116/100 101/117/101
f 97/103/97 96/113/96 107/118/107 108/119/108
f 94/107/94 93/114/93 104/120/104 105/121/105
f 91/109/91 90/115/90 101/117/101 102/122/102
f 98/104/98 97/103/97 108/119/108 109/123/109
f 88/106/88 21/124/21 99/125/99
f 95/108/95 94/107/94 105/121/105 106/126/106
f 92/110/92 91/109/91 102/122/102 103/127/103
f 110/128/110 98/104/98 109/123/109
f 89/112/89 88/106/88 99/125/99 100/116/100
f 96/113/96 95/108/95 106/126/106 107/118/107
f 93/114/93 92/110/92 103/127/103 104/120/104
f 110/129/110 109/123/109 121/130/121
f 100/116/100 99/125/99 111/131/111 112/132/112
f 107/118/107 106/126/106 118/133/118 119/134/119
f 104/120/104 103/127/103 115/135/115 116/136/116
f 101/117/101 100/116/100 112/132/112 113/137/113
f 108/119/108 107/118/107 119/134/119 120/138/120
f 105/121/105 104/120/104 116/136/116 117/139/117
f 102/122/102 101/117/101 113/137/113 114/140/114
f 109/123/109 108/119/108 120/138/120 121/130/121
f 99/125/99 21/141/21 111/131/111
f 106/126/106 105/121/105 117/139/117 118/133/118
f 103/127/103 102/122/102 114/140/114 115/135/115
f 114/140/114 113/137/113 124/142/124 125/143/125
f 121/130/121 120/138/120 131/144/131 132/145/132
f 111/131/111 21/146/21 122/147/122
f 118/133/118 117/139/117 128/148/128 129/149/129
f 115/135/115 114/140/114 125/143/125 126/150/126
f 110/151/110 121/130/121 132/145/132
f 112/132/112 111/131/111 122/147/122 123/152/123
f 119/134/119 118/133/118 129/149/129 130/153/130
f 116/136/116 115/135/115 126/150/126 127/154/127
f 113/137/113 112/132/112 123/152/123 124/142/124
f 120/138/120 119/134/119 130/153/130 131/144/131
f 117/139/117 116/136/116 127/154/127 128/148/128
f 124/142/124 123/152/123 134/155/134 135/156/135
f 131/144/131 130/153/130 141/157/141 142/158/142
f 128/148/128 127/154/127 138/159/138 139/160/139
f 125/143/125 124/142/124 135/156/135 136/161/136
f 132/145/132 131/144/131 142/158/142 143/162/143
f 122/147/122 21/163/21 133/164/133
f 129/149/129 128/148/128 139/160/139 140/165/140
f 126/150/126 125/143/125 136/161/136 137/166/137
f 110/167/110 132/145/132 143/162/143
f 123/152/123 122/147/122 133/164/133 134/155/134
f 130/153/130 129/149/129 140/165/140 141/157/141
f 127/154/127 126/150/126 137/166/137 138/159/138
f 137/168/137 136/169/136 147/170/147 148/171/148
f 110/172/110 143/173/143 154/174/154
f 134/175/134 133/176/133 144/177/144 145/178/145
f 141/179/141 140/180/140 151/181/151 152/182/152
f 138/183/138 137/168/137 148/171/148 149/184/149
f 135/185/135 134/175/134 145/178/145 146/186/146
f 142/187/142 141/179/141 152/182/152 153/188/153
f 139/189/139 138/183/138 149/184/149 150/190/150
f 136/169/136 135/185/135 146/186/146 147/170/147
f 143/173/143 142/187/142 153/188/153 154/174/154
f 133/176/133 21/191/21 144/177/144
f 140/180/140 139/189/139 150/190/150 151/181/151
f 147/170/147 146/186/146 157/192/157 158/193/158
f 154/174/154 153/188/153 164/194/164 165/195/165
f 144/177/144 21/196/21 155/197/155
f 151/181/151 150/190/150 161/198/161 162/199/162
f 148/171/148 147/170/147 158/193/158 159/200/159
f 110/201/110 154/174/154 165/195/165
f 145/178/145 144/177/144 155/197/155 156/202/156
f 152/182/152 151/181/151 162/199/162 163/203/163
f 149/184/149 148/171/148 159/200/159 160/204/160
f 146/186/146 145/178/145 156/202/156 157/192/157
f 153/188/153 152/182/152 163/203/163 164/194/164
f 150/190/150 149/184/149 160/204/160 161/198/161
f 160/204/160 159/200/159 170/205/170 171/206/171
f 157/192/157 156/202/156 167/207/167 168/208/168
f 164/194/164 163/203/163 174/209/174 175/210/175
f 161/198/161 160/204/160 171/206/171 172/211/172
f 158/193/158 157/192/157 168/208/168 169/212/169
f 165/195/165 164/194/164 175/210/175 176/213/176
f 155/197/155 21/214/21 166/215/166
f 162/199/162 161/198/161 172/211/172 173/216/173
f 159/200/159 158/193/158 169/212/169 170/205/170
f 110/217/110 165/195/165 176/213/176
f 156/202/156 155/197/155 166/215/166 167/207/167
f 163/203/163 162/199/162 173/216/173 174/209/174
f 170/205/170 169/212/169 3/13/3 4/22/4
f 110/218/110 176/213/176 9/15/9
f 167/207/167 166/215/166 1/17/1 2/2/2
f 174/209/174 173/216/173 7/20/7 178/6/178
f 171/206/171 170/205/170 4/22/4 5/10/5
f 168/208/168 167/207/167 2/2/2 177/1/177
f 175/210/175 174/209/174 178/6/178 8/5/8
f 172/211/172 171/206/171 5/10/5 6/9/6
f 169/212/169 168/208/168 177/1/177 3/13/3
f 176/213/176 175/210/175 8/5/8 9/15/9
f 166/215/166 21/219/21 1/17/1
f 173/216/173 172/211/172 6/9/6 7/20/7
